<svg width="21" height="22" viewBox="0 0 21 22" fill="none" xmlns="http://www.w3.org/2000/svg">
	<path fill-rule="evenodd" clip-rule="evenodd" d="M0 1.22116C0 0.76085 0.369365 0.387695 0.825 0.387695H3.3C3.75564 0.387695 4.125 0.76085 4.125 1.22116V16.2235C4.125 16.6838 4.49437 17.057 4.95 17.057H15.675C16.1306 17.057 16.5 16.6838 16.5 16.2235V13.7231C16.5 13.2628 16.1306 12.8897 15.675 12.8897H10.725C9.3581 12.8897 8.25 11.7702 8.25 10.3893V2.88809C8.25 1.50716 9.3581 0.387695 10.725 0.387695H18.15C19.5169 0.387695 20.625 1.50716 20.625 2.88809V18.7239C20.625 20.1048 19.5169 21.2243 18.15 21.2243H2.475C1.1081 21.2243 0 20.1048 0 18.7239V1.22116ZM16.5 5.38848C16.5 4.92817 16.1306 4.55502 15.675 4.55502H12.375V7.88888C12.375 8.34919 12.7444 8.72234 13.2 8.72234H16.5V5.38848Z" fill="url(#paint0_linear_170_20)" />
	<defs>
		<linearGradient id="paint0_linear_170_20" x1="-1.55986e-06" y1="31.4343" x2="21.8776" y2="-4.51986" gradientUnits="userSpaceOnUse">
			<stop stop-color="#213F7D" />
			<stop offset="1" stop-color="#39CDCC" />
		</linearGradient>
	</defs>
</svg>